<mxfile host="app.diagrams.net" modified="2023-09-19T02:37:41.841Z" agent="Mozilla/5.0 (X11; Linux x86_64) AppleWebKit/537.36 (KHTML, like Gecko) Chrome/116.0.0.0 Safari/537.36" etag="4K3V2e_WhR4XzWGTk8UO" version="21.7.5" type="github">
  <diagram name="Page-1" id="93n_ghcEpOM-7wUu86SL">
    <mxGraphModel dx="1058" dy="623" grid="1" gridSize="10" guides="1" tooltips="1" connect="1" arrows="1" fold="1" page="1" pageScale="1" pageWidth="850" pageHeight="1100" math="0" shadow="0">
      <root>
        <mxCell id="0" />
        <mxCell id="1" parent="0" />
        <mxCell id="GUzrDXDAhEW2XTGeao3G-2" value="" style="rounded=0;whiteSpace=wrap;html=1;rotation=-90;" vertex="1" parent="1">
          <mxGeometry x="200" y="170" width="460" height="290" as="geometry" />
        </mxCell>
        <mxCell id="GUzrDXDAhEW2XTGeao3G-4" value="anggota" style="shape=umlActor;verticalLabelPosition=bottom;verticalAlign=top;html=1;outlineConnect=0;" vertex="1" parent="1">
          <mxGeometry x="180" y="240" width="60" height="100" as="geometry" />
        </mxCell>
        <mxCell id="GUzrDXDAhEW2XTGeao3G-5" value="pengunjung" style="shape=umlActor;verticalLabelPosition=bottom;verticalAlign=top;html=1;outlineConnect=0;" vertex="1" parent="1">
          <mxGeometry x="610" y="240" width="60" height="100" as="geometry" />
        </mxCell>
        <mxCell id="GUzrDXDAhEW2XTGeao3G-6" value="membaca" style="ellipse;whiteSpace=wrap;html=1;" vertex="1" parent="1">
          <mxGeometry x="365" y="265" width="120" height="80" as="geometry" />
        </mxCell>
        <mxCell id="GUzrDXDAhEW2XTGeao3G-7" value="rekap buku catatan" style="ellipse;whiteSpace=wrap;html=1;" vertex="1" parent="1">
          <mxGeometry x="365" y="400" width="120" height="80" as="geometry" />
        </mxCell>
        <mxCell id="GUzrDXDAhEW2XTGeao3G-8" value="mengisi buku cataan" style="ellipse;whiteSpace=wrap;html=1;" vertex="1" parent="1">
          <mxGeometry x="365" y="130" width="120" height="80" as="geometry" />
        </mxCell>
        <mxCell id="GUzrDXDAhEW2XTGeao3G-9" value="CATATAN PENGUNJUNG PERPUSTAKAAN" style="text;html=1;strokeColor=none;fillColor=none;align=center;verticalAlign=middle;whiteSpace=wrap;rounded=0;" vertex="1" parent="1">
          <mxGeometry x="330" y="90" width="190" height="30" as="geometry" />
        </mxCell>
        <mxCell id="GUzrDXDAhEW2XTGeao3G-10" value="" style="endArrow=none;html=1;rounded=0;entryX=0;entryY=1;entryDx=0;entryDy=0;" edge="1" parent="1" source="GUzrDXDAhEW2XTGeao3G-4" target="GUzrDXDAhEW2XTGeao3G-8">
          <mxGeometry width="50" height="50" relative="1" as="geometry">
            <mxPoint x="400" y="410" as="sourcePoint" />
            <mxPoint x="450" y="360" as="targetPoint" />
          </mxGeometry>
        </mxCell>
        <mxCell id="GUzrDXDAhEW2XTGeao3G-11" value="" style="endArrow=none;html=1;rounded=0;entryX=0;entryY=0.3333333333333333;entryDx=0;entryDy=0;entryPerimeter=0;exitX=1;exitY=0.5;exitDx=0;exitDy=0;" edge="1" parent="1" source="GUzrDXDAhEW2XTGeao3G-6" target="GUzrDXDAhEW2XTGeao3G-5">
          <mxGeometry width="50" height="50" relative="1" as="geometry">
            <mxPoint x="400" y="410" as="sourcePoint" />
            <mxPoint x="450" y="360" as="targetPoint" />
          </mxGeometry>
        </mxCell>
        <mxCell id="GUzrDXDAhEW2XTGeao3G-12" value="" style="endArrow=none;html=1;rounded=0;entryX=0;entryY=0.3333333333333333;entryDx=0;entryDy=0;entryPerimeter=0;exitX=0.958;exitY=0.313;exitDx=0;exitDy=0;exitPerimeter=0;" edge="1" parent="1" source="GUzrDXDAhEW2XTGeao3G-7" target="GUzrDXDAhEW2XTGeao3G-5">
          <mxGeometry width="50" height="50" relative="1" as="geometry">
            <mxPoint x="495" y="315" as="sourcePoint" />
            <mxPoint x="620" y="283" as="targetPoint" />
          </mxGeometry>
        </mxCell>
      </root>
    </mxGraphModel>
  </diagram>
</mxfile>
